<svg width="24" height="24" viewBox="0 0 24 24" fill="none" xmlns="http://www.w3.org/2000/svg">
<g clip-path="url(#clip0_232_111)">
<path d="M11.9764 23.9953C9.21468 23.9953 6.45348 23.9953 3.69277 23.9953C1.4993 23.9938 0 22.493 0 20.2935C0 14.7606 0 9.22668 0 3.69177C0 1.49905 1.5038 -0.000244141 3.70326 -0.000244141C9.23817 -0.000244141 14.7728 -0.000244141 20.3072 -0.000244141C22.5015 -0.000244141 23.9985 1.49905 23.9993 3.70077C23.9993 9.23468 23.9993 14.7686 23.9993 20.3025C23.9993 22.496 22.5 23.9923 20.2982 23.9938C17.524 23.9963 14.7501 23.9968 11.9764 23.9953ZM22.5847 11.9941C22.5847 9.23343 22.5847 6.47272 22.5847 3.71202C22.5847 2.26145 21.7308 1.41359 20.2735 1.41284C14.7641 1.41284 9.25441 1.41284 3.7445 1.41284C2.26319 1.41284 1.42058 2.2562 1.42058 3.73226C1.42058 9.24167 1.42058 14.7508 1.42058 20.2598C1.42058 21.7351 2.26769 22.5769 3.75049 22.5769C9.24792 22.5769 14.7453 22.5769 20.2428 22.5769C21.7496 22.5769 22.5884 21.7396 22.5892 20.238C22.5872 17.4908 22.5857 14.7428 22.5847 11.9941Z" fill="#272727"/>
<path d="M10.3732 12.0046C10.8935 12.5376 11.2203 13.1471 11.287 13.8907C11.4152 15.3211 10.3432 16.6929 8.91664 16.8743C8.54316 16.9135 8.16765 16.93 7.79217 16.9238C6.73066 16.9298 5.66841 16.9193 4.60616 16.9305C4.34678 16.9305 4.25008 16.8556 4.26282 16.5902C4.28156 16.2034 4.26732 15.8158 4.26732 15.4283V7.15662C4.32579 7.11314 4.33554 7.0989 4.34228 7.0989C5.91655 7.11014 7.5043 6.97745 9.05308 7.17386C11.0891 7.42949 11.9722 10 10.6926 11.6185C10.5989 11.7422 10.4954 11.8622 10.3732 12.0046ZM5.68416 8.49399C5.68416 9.39357 5.67891 10.2534 5.6939 11.1125C5.6939 11.1755 5.83409 11.2887 5.9098 11.2894C6.79663 11.2969 7.68497 11.3209 8.56955 11.2737C8.92326 11.2568 9.25711 11.1052 9.50257 10.85C9.74804 10.5948 9.88652 10.2553 9.88959 9.90118C9.89266 9.54708 9.76009 9.20523 9.51908 8.94579C9.27807 8.68635 8.94691 8.52898 8.59354 8.50599C7.64674 8.45651 6.69918 8.49399 5.68416 8.49399ZM5.68416 12.6973C5.68416 13.6044 5.68416 14.4627 5.69165 15.3211C5.69165 15.3855 5.80185 15.5047 5.86107 15.5047C6.82212 15.5047 7.78692 15.5354 8.74347 15.4597C9.42715 15.405 9.89568 14.7678 9.88744 14.0931C9.87844 13.4019 9.37917 12.791 8.679 12.7393C7.87088 12.68 7.05601 12.707 6.24489 12.6973C6.07247 12.695 5.90155 12.6973 5.68341 12.6973H5.68416Z" fill="#272727"/>
<path d="M14.237 14.103C14.5212 14.8069 14.9755 15.2432 15.6374 15.4201C16.6502 15.6907 17.444 15.3151 18.061 14.4703L19.2432 15.1495C18.9433 15.7282 18.5018 16.133 17.9688 16.4426C17.3035 16.8257 16.531 16.9803 15.7696 16.8826C15.0081 16.7849 14.2997 16.4403 13.7527 15.9017C13.2057 15.363 12.8503 14.6599 12.7409 13.9C12.6315 13.1402 12.7742 12.3654 13.1471 11.6943C13.8967 10.3487 15.489 9.62979 16.9755 9.97013C17.7318 10.1381 18.4113 10.5514 18.9084 11.1456C19.4054 11.7399 19.6921 12.4818 19.7237 13.2558C19.7575 14.1015 19.7575 14.1015 18.9298 14.1015H14.237V14.103ZM18.1352 12.6689C17.9141 11.8548 17.0857 11.2925 16.1719 11.3083C15.2956 11.3233 14.4807 11.908 14.2978 12.6689H18.1352Z" fill="#272727"/>
<path d="M19.0175 7.10278V8.45215H13.4453V7.10278H19.0175Z" fill="#272727"/>
</g>
<defs>
<clipPath id="clip0_232_111">
<rect width="24" height="23.9963" fill="white" transform="translate(0 -0.000244141)"/>
</clipPath>
</defs>
</svg>
