<svg width="24" height="25" viewBox="0 0 24 25" fill="none" xmlns="http://www.w3.org/2000/svg">
<g clip-path="url(#clip0_232_119)">
<path d="M24 13.0566C23.9967 16.2262 22.7344 19.2647 20.4909 21.5037C18.2474 23.7427 15.2063 24.9989 12.0367 24.9958C5.40482 24.9898 -0.0106604 19.6017 1.57583e-05 13.0232C0.0106919 6.43001 5.4582 0.99585 12.0514 0.99585C18.6306 0.99585 24.0074 6.42601 24 13.0566ZM13.871 14.4378C13.7209 14.4678 13.6348 14.4758 13.5547 14.5045C11.948 15.0237 10.4613 15.7723 9.15082 16.8433C7.68751 18.0337 6.56585 19.4703 5.98066 21.2932C5.89526 21.5601 5.95464 21.6936 6.18084 21.835C8.99401 23.6144 11.9967 24.0394 15.1888 23.1102C15.4171 23.0434 15.5138 22.95 15.4758 22.6945C15.2316 21.0543 15.0501 19.4029 14.7485 17.7741C14.5396 16.6491 14.1713 15.5568 13.871 14.4378ZM4.70687 20.5806C6.26558 16.5837 9.40838 14.3891 13.3332 13.0586C13.125 12.5648 12.9135 12.1131 12.7453 11.6453C12.6326 11.3317 12.4838 11.2743 12.1615 11.3644C8.86256 12.2846 5.50424 12.5274 2.09988 12.1911C1.8937 12.1704 1.68618 12.1711 1.486 12.1624C0.973548 14.7367 2.7965 19.4789 4.70687 20.5806ZM1.67217 10.7378C5.16994 11.1309 8.56162 10.9227 11.9333 9.9785C10.7574 7.69277 9.29136 5.56844 7.57141 3.65822C7.4106 3.48006 7.28849 3.5281 7.12168 3.61685C5.42877 4.50196 4.00583 5.82716 3.00268 7.45292C2.36908 8.46094 1.91865 9.57302 1.67217 10.7378ZM8.82119 2.94225C10.5828 4.93335 12.0862 7.1387 13.2958 9.50608C15.5552 8.7821 18.3296 7.04256 19.1711 5.26031C16.6461 2.71605 12.377 1.69247 8.82119 2.94225ZM16.8777 22.3949C17.0358 22.3148 17.1479 22.2654 17.2527 22.204C20.1637 20.4763 21.9062 17.9429 22.48 14.6039C22.526 14.337 22.4306 14.2396 22.1891 14.2036C21.1408 14.0568 20.0972 13.8506 19.0436 13.7705C17.7758 13.6731 16.504 13.7959 15.2115 14.0788C16.1022 16.773 16.6616 19.5655 16.8777 22.3949ZM20.218 6.33393C18.6346 8.5946 16.3772 9.83704 13.9391 10.8212C14.1699 11.3777 14.3968 11.8789 14.5843 12.3933C14.6804 12.6602 14.8012 12.7209 15.0794 12.6662C16.9951 12.2824 18.9633 12.2373 20.8946 12.5328C21.4451 12.6182 21.9929 12.7209 22.5834 12.823C22.51 10.3882 21.7313 8.2543 20.218 6.33393Z" fill="#272727"/>
</g>
<defs>
<clipPath id="clip0_232_119">
<rect width="24" height="24" fill="white" transform="translate(0 0.99585)"/>
</clipPath>
</defs>
</svg>
