<svg width="24" height="25" viewBox="0 0 24 25" fill="none" xmlns="http://www.w3.org/2000/svg">
<g clip-path="url(#clip0_232_96)">
<path d="M12.0262 0.00415039C14.7874 0.00415039 17.5486 0.00415039 20.3097 0.00415039C22.5009 0.00415039 23.997 1.50996 23.997 3.70944C23.997 9.24474 23.997 14.7796 23.997 20.3139C23.997 22.5051 22.4972 24.0011 20.294 24.0011C14.7597 24.0011 9.22485 24.0011 3.68954 24.0011C1.49981 24.0011 0 22.5013 0 20.2981C0 14.7638 0 9.229 0 3.69369C0 1.50396 1.50581 0.00415039 3.70529 0.00415039C6.47944 0.00415039 9.25309 0.00415039 12.0262 0.00415039ZM11.9985 22.5883C14.7597 22.5883 17.5208 22.5883 20.282 22.5883C21.733 22.5883 22.5812 21.7349 22.5812 20.2779C22.5812 14.7676 22.5812 9.25774 22.5812 3.74843C22.5812 2.26737 21.7375 1.42372 20.261 1.42372H3.73378C2.25872 1.42372 1.41657 2.27112 1.41582 3.75368C1.41582 9.25299 1.41582 14.7503 1.41582 20.2456C1.41582 21.7514 2.25347 22.5906 3.75553 22.5913C6.50419 22.5903 9.25184 22.5893 11.9985 22.5883Z" fill="#272727"/>
<path d="M18.3196 11.9883C18.3227 13.2385 17.9549 14.4616 17.2627 15.5028C16.5705 16.5439 15.585 17.3564 14.431 17.8373C13.2769 18.3182 12.0061 18.446 10.7794 18.2045C9.5527 17.963 8.4252 17.363 7.53956 16.4805C6.65393 15.598 6.04996 14.4727 5.80408 13.2468C5.5582 12.021 5.68146 10.7498 6.15826 9.59401C6.63507 8.43825 7.44399 7.44989 8.48267 6.75399C9.52135 6.05808 10.7431 5.68592 11.9934 5.68458C13.6681 5.68179 15.2754 6.34432 16.4618 7.52645C17.6481 8.70859 18.3164 10.3135 18.3196 11.9883ZM12.0489 7.08465C9.38669 7.02166 7.15721 9.20314 7.08147 11.9456C7.00648 14.6025 9.18121 16.8349 11.9319 16.9219C14.5978 17.0067 16.867 14.7877 16.9195 12.0475C16.9712 9.37787 14.7853 7.14915 12.0489 7.08465Z" fill="#272727"/>
<path d="M19.0382 7.07121C18.763 7.07389 18.4901 7.02209 18.235 6.91882C17.9799 6.81555 17.7478 6.66284 17.552 6.46949C17.3562 6.27613 17.2006 6.04595 17.0942 5.7922C16.9877 5.53845 16.9325 5.26615 16.9317 4.99097C16.9293 4.71258 16.9821 4.43646 17.0871 4.17858C17.192 3.9207 17.3469 3.68615 17.543 3.48849C17.7391 3.29082 17.9723 3.13395 18.2294 3.02694C18.4864 2.91992 18.762 2.86488 19.0405 2.86499C19.5964 2.87299 20.1272 3.098 20.5195 3.492C20.9118 3.88599 21.1346 4.41775 21.1402 4.97373C21.1374 5.52994 20.9149 6.06252 20.5212 6.4554C20.1275 6.84829 19.5944 7.06964 19.0382 7.07121ZM19.0382 5.66964C19.2209 5.66786 19.3954 5.59379 19.5235 5.46365C19.6517 5.33351 19.7231 5.15789 19.7221 4.97523C19.7245 4.88458 19.7087 4.79439 19.6755 4.71001C19.6423 4.62564 19.5924 4.54882 19.5288 4.48415C19.4653 4.41947 19.3893 4.36827 19.3056 4.33359C19.2218 4.29892 19.1319 4.28147 19.0412 4.28231C18.8572 4.28231 18.6808 4.3554 18.5507 4.48548C18.4206 4.61557 18.3475 4.79201 18.3475 4.97598C18.3475 5.15995 18.4206 5.33638 18.5507 5.46647C18.6808 5.59656 18.8572 5.66964 19.0412 5.66964H19.0382Z" fill="#272727"/>
</g>
<defs>
<clipPath id="clip0_232_96">
<rect width="24" height="24" fill="white" transform="translate(0 0.00415039)"/>
</clipPath>
</defs>
</svg>
