<svg width="24" height="24" viewBox="0 0 24 24" fill="none" xmlns="http://www.w3.org/2000/svg">
<g clip-path="url(#clip0_232_103)">
<path d="M23.9992 3.71918C23.9985 1.49736 22.506 0.00415039 20.2827 0.00415039H3.71653C1.49321 0.00415039 0 1.49811 0 3.72068C0 6.48121 0 9.24174 0 12.0023C0 14.7628 0 17.5236 0 20.2846C0 22.5057 1.49396 23.9981 3.71653 23.9981C9.23909 23.9981 14.7612 23.9981 20.2827 23.9981C22.5045 23.9981 23.9963 22.5049 23.997 20.2824C24 14.7593 24.0007 9.23824 23.9992 3.71918ZM22.584 20.2516C22.584 21.7359 21.7429 22.5829 20.2685 22.5837C14.7589 22.5837 9.24909 22.5837 3.73901 22.5837C2.2608 22.5837 1.41525 21.7381 1.41525 20.2599C1.41525 14.7513 1.41525 9.24249 1.41525 3.73342C1.41675 2.26045 2.2653 1.4209 3.74801 1.42015C6.50904 1.42015 9.27032 1.42015 12.0319 1.42015C14.7679 1.42015 17.504 1.42015 20.24 1.42015C21.7437 1.42015 22.5818 2.2582 22.5818 3.76265C22.5848 9.25973 22.5855 14.7561 22.584 20.2516Z" fill="#272727"/>
<path d="M14.3798 9.99708C14.2912 10.0108 14.2006 10.0012 14.1167 9.96935C13.999 9.93562 13.8874 9.84492 13.7727 9.84417C12.5853 9.83442 11.3987 9.83742 10.2113 9.83967C10.1167 9.84415 10.0223 9.85365 9.92871 9.86815V19.7629H14.1055V19.3326C14.1055 17.8956 14.1055 16.4586 14.1055 15.0224C14.1002 14.8484 14.1235 14.6747 14.1745 14.5082C14.2757 14.2196 14.5088 14.0749 14.8116 14.0757C15.1145 14.0764 15.3468 14.2256 15.4458 14.5119C15.4957 14.6789 15.5185 14.8527 15.5132 15.0269C15.5185 16.4639 15.5132 17.9001 15.5132 19.3371C15.5132 19.4803 15.5275 19.6242 15.535 19.7749H19.6803C19.6978 19.7283 19.7103 19.6801 19.7178 19.631C19.7178 17.7315 19.7882 15.829 19.69 13.934C19.5648 11.3981 17.0987 9.23249 14.3798 9.99708ZM18.2905 18.3476H16.9502C16.9427 18.2037 16.9315 18.0605 16.93 17.9166C16.9158 16.781 16.9487 15.6431 16.8783 14.5112C16.8131 13.4505 15.8903 12.6724 14.8259 12.6672C13.7434 12.6619 12.8139 13.4408 12.745 14.5217C12.6753 15.6288 12.7075 16.742 12.6962 17.8522C12.6962 18.0111 12.6962 18.17 12.6962 18.3506H11.3327V11.2849H12.6917V12.6649C13.0171 12.422 13.2449 12.2152 13.5036 12.0652C13.9533 11.8036 14.3933 11.4753 14.8828 11.3509C16.457 10.9498 18.1264 12.117 18.262 13.7991C18.3827 15.296 18.2905 16.814 18.2905 18.3476Z" fill="#272727"/>
<path d="M4.30176 19.7659H8.4568V9.8667H4.30176V19.7659ZM5.69752 11.2812H7.0393V18.3514H5.69752V11.2812Z" fill="#272727"/>
<path d="M8.45564 4.24536H4.28711V8.41465H8.45564V4.24536ZM7.04639 7.01514H5.71285V5.65012H7.04639V7.01514Z" fill="#272727"/>
</g>
<defs>
<clipPath id="clip0_232_103">
<rect width="24" height="23.9955" fill="white" transform="translate(0 0.00415039)"/>
</clipPath>
</defs>
</svg>
