<svg width="25" height="26" viewBox="0 0 25 26" fill="none" xmlns="http://www.w3.org/2000/svg">
<path d="M24.0234 8.99145C24.0234 9.14685 23.9617 9.29589 23.8518 9.40577C23.7419 9.51566 23.5929 9.57739 23.4375 9.57739H21.6797V11.3352C21.6797 11.4906 21.6179 11.6396 21.5081 11.7495C21.3982 11.8594 21.2491 11.9211 21.0937 11.9211C20.9383 11.9211 20.7893 11.8594 20.6794 11.7495C20.5695 11.6396 20.5078 11.4906 20.5078 11.3352V9.57739H18.75C18.5946 9.57739 18.4456 9.51566 18.3357 9.40577C18.2258 9.29589 18.1641 9.14685 18.1641 8.99145C18.1641 8.83605 18.2258 8.68702 18.3357 8.57713C18.4456 8.46725 18.5946 8.40552 18.75 8.40552H20.5078V6.6477C20.5078 6.4923 20.5695 6.34327 20.6794 6.23338C20.7893 6.1235 20.9383 6.06177 21.0937 6.06177C21.2491 6.06177 21.3982 6.1235 21.5081 6.23338C21.6179 6.34327 21.6797 6.4923 21.6797 6.6477V8.40552H23.4375C23.5929 8.40552 23.7419 8.46725 23.8518 8.57713C23.9617 8.68702 24.0234 8.83605 24.0234 8.99145ZM14.8437 4.88989H15.8203V5.86645C15.8203 6.02186 15.882 6.17089 15.9919 6.28078C16.1018 6.39066 16.2508 6.45239 16.4062 6.45239C16.5616 6.45239 16.7107 6.39066 16.8206 6.28078C16.9304 6.17089 16.9922 6.02186 16.9922 5.86645V4.88989H17.9687C18.1241 4.88989 18.2732 4.82816 18.3831 4.71828C18.4929 4.60839 18.5547 4.45936 18.5547 4.30395C18.5547 4.14855 18.4929 3.99952 18.3831 3.88963C18.2732 3.77975 18.1241 3.71802 17.9687 3.71802H16.9922V2.74146C16.9922 2.58605 16.9304 2.43702 16.8206 2.32713C16.7107 2.21725 16.5616 2.15552 16.4062 2.15552C16.2508 2.15552 16.1018 2.21725 15.9919 2.32713C15.882 2.43702 15.8203 2.58605 15.8203 2.74146V3.71802H14.8437C14.6883 3.71802 14.5393 3.77975 14.4294 3.88963C14.3195 3.99952 14.2578 4.14855 14.2578 4.30395C14.2578 4.45936 14.3195 4.60839 14.4294 4.71828C14.5393 4.82816 14.6883 4.88989 14.8437 4.88989ZM21.7142 15.1193C21.7522 15.233 21.7543 15.3557 21.7204 15.4707C21.2709 17.0805 20.4076 18.5447 19.2165 19.7173C18.0254 20.8899 16.548 21.7302 14.9313 22.1546C13.3146 22.5789 11.6149 22.5725 10.0015 22.1359C8.388 21.6994 6.91699 20.8479 5.73479 19.6663C4.5526 18.4847 3.70044 17.0141 3.26312 15.4008C2.82579 13.7876 2.81854 12.0879 3.24209 10.471C3.66564 8.85407 4.50523 7.37626 5.6773 6.18459C6.84937 4.99293 8.31307 4.12896 9.92274 3.67866C10.0243 3.6479 10.1323 3.64527 10.2352 3.67106C10.3381 3.69685 10.4321 3.75009 10.5071 3.8251C10.5821 3.90011 10.6354 3.99408 10.6612 4.09699C10.687 4.19989 10.6844 4.30788 10.6537 4.40942C10.2584 5.841 10.2497 7.35178 10.6284 8.78783C11.0071 10.2239 11.7597 11.5339 12.8095 12.5844C13.8593 13.6349 15.1689 14.3883 16.6047 14.7679C18.0405 15.1475 19.5513 15.1397 20.9831 14.7454C21.1297 14.6994 21.2884 14.7129 21.4251 14.7828C21.5619 14.8527 21.6657 14.9736 21.7142 15.1193ZM20.2677 16.0975C18.773 16.3374 17.2427 16.2193 15.8025 15.753C14.3623 15.2866 13.0533 14.4854 11.9828 13.4149C10.9124 12.3445 10.1111 11.0355 9.64477 9.59528C9.17844 8.15508 9.06034 6.62482 9.30019 5.13013C8.02193 5.65705 6.89351 6.49135 6.01504 7.55899C5.13657 8.62663 4.53521 9.89461 4.26432 11.2504C3.99344 12.6062 4.06141 14.0079 4.46219 15.3311C4.86297 16.6544 5.58418 17.8582 6.56183 18.8359C7.53947 19.8135 8.74332 20.5347 10.0666 20.9355C11.3898 21.3363 12.7915 21.4043 14.1473 21.1334C15.5031 20.8625 16.7711 20.2611 17.8387 19.3827C18.9063 18.5042 19.7406 17.3758 20.2676 16.0975H20.2677Z" fill="black"/>
</svg>
