<svg width="25" height="26" viewBox="0 0 25 26" fill="none" xmlns="http://www.w3.org/2000/svg">
<path fill-rule="evenodd" clip-rule="evenodd" d="M12.4998 4.77954C12.684 4.77954 12.8606 4.70638 12.9908 4.57614C13.1211 4.44591 13.1942 4.26927 13.1942 4.0851V1.72399C13.1942 1.53981 13.1211 1.36317 12.9908 1.23294C12.8606 1.10271 12.684 1.02954 12.4998 1.02954C12.3156 1.02954 12.139 1.10271 12.0087 1.23294C11.8785 1.36317 11.8053 1.53981 11.8053 1.72399V4.0851C11.8053 4.26927 11.8785 4.44591 12.0087 4.57614C12.139 4.70638 12.3156 4.77954 12.4998 4.77954ZM12.4998 21.0157C12.3156 21.0157 12.139 21.0888 12.0087 21.2191C11.8785 21.3493 11.8053 21.5259 11.8053 21.7101V24.0712C11.8053 24.2554 11.8785 24.432 12.0087 24.5623C12.139 24.6925 12.3156 24.7657 12.4998 24.7657C12.684 24.7657 12.8606 24.6925 12.9908 24.5623C13.1211 24.432 13.1942 24.2554 13.1942 24.0712V21.7101C13.1942 21.5259 13.1211 21.3493 12.9908 21.2191C12.8606 21.0888 12.684 21.0157 12.4998 21.0157ZM6.24988 7.34203C6.07538 7.34332 5.90679 7.27886 5.77766 7.16148L4.11099 5.48787C3.99723 5.35502 3.93778 5.18413 3.94453 5.00936C3.95128 4.83458 4.02373 4.66879 4.14741 4.54511C4.27109 4.42144 4.43688 4.34898 4.61165 4.34223C4.78643 4.33548 4.95731 4.39493 5.09016 4.5087L6.74294 6.15453C6.80803 6.21909 6.85969 6.2959 6.89495 6.38052C6.9302 6.46515 6.94835 6.55591 6.94835 6.64759C6.94835 6.73926 6.9302 6.83003 6.89495 6.91466C6.85969 6.99928 6.80803 7.07609 6.74294 7.14064C6.67805 7.20501 6.60109 7.25593 6.51649 7.29048C6.43188 7.32504 6.34128 7.34256 6.24988 7.34203ZM19.2221 18.6337C19.1573 18.569 19.0805 18.5176 18.9959 18.4825C18.9113 18.4475 18.8206 18.4295 18.729 18.4295C18.6375 18.4295 18.5468 18.4475 18.4622 18.4825C18.3776 18.5176 18.3007 18.569 18.236 18.6337C18.1712 18.6984 18.1199 18.7753 18.0848 18.8599C18.0498 18.9445 18.0317 19.0352 18.0317 19.1268C18.0317 19.2183 18.0498 19.309 18.0848 19.3936C18.1199 19.4782 18.1712 19.5551 18.236 19.6198L19.9096 21.2865C19.9739 21.3521 20.0506 21.4043 20.1352 21.4401C20.2199 21.4758 20.3108 21.4944 20.4026 21.4948C20.5858 21.4922 20.7605 21.4173 20.8887 21.2865C21.0181 21.1564 21.0907 20.9804 21.0907 20.7969C21.0907 20.6134 21.0181 20.4374 20.8887 20.3073L19.2221 18.6337ZM4.17844 12.4065C4.30867 12.5368 4.38184 12.7134 4.38184 12.8976C4.38184 13.0818 4.30867 13.2584 4.17844 13.3886C4.0482 13.5189 3.87157 13.592 3.68739 13.592H1.32628C1.1421 13.592 0.965468 13.5189 0.835234 13.3886C0.705 13.2584 0.631836 13.0818 0.631836 12.8976C0.631836 12.7134 0.705 12.5368 0.835234 12.4065C0.965468 12.2763 1.1421 12.2031 1.32628 12.2031H3.68739C3.87157 12.2031 4.0482 12.2763 4.17844 12.4065ZM23.6736 12.2031H21.3124C21.1283 12.2031 20.9516 12.2763 20.8214 12.4065C20.6912 12.5368 20.618 12.7134 20.618 12.8976C20.618 13.0818 20.6912 13.2584 20.8214 13.3886C20.9516 13.5189 21.1283 13.592 21.3124 13.592H23.6736C23.8577 13.592 24.0344 13.5189 24.1646 13.3886C24.2948 13.2584 24.368 13.0818 24.368 12.8976C24.368 12.7134 24.2948 12.5368 24.1646 12.4065C24.0344 12.2763 23.8577 12.2031 23.6736 12.2031ZM4.11118 20.3073L5.77785 18.6337C5.90862 18.5029 6.08597 18.4295 6.27091 18.4295C6.45584 18.4295 6.63319 18.5029 6.76396 18.6337C6.89473 18.7645 6.96819 18.9418 6.96819 19.1268C6.96819 19.3117 6.89473 19.489 6.76396 19.6198L5.09035 21.2865C5.02603 21.3521 4.94934 21.4043 4.8647 21.4401C4.78007 21.4758 4.68917 21.4944 4.59729 21.4948C4.45995 21.4942 4.32587 21.4529 4.21199 21.3762C4.09811 21.2994 4.00956 21.1906 3.95753 21.0635C3.90549 20.9363 3.89232 20.7967 3.91967 20.6621C3.94702 20.5275 4.01367 20.404 4.11118 20.3073ZM18.7497 7.34205C18.8411 7.34258 18.9317 7.32506 19.0163 7.2905C19.101 7.25594 19.1779 7.20502 19.2428 7.14066L20.9095 5.46705C21.0388 5.33694 21.1114 5.16093 21.1114 4.97747C21.1114 4.794 21.0388 4.618 20.9095 4.48788C20.7793 4.35854 20.6033 4.28594 20.4199 4.28594C20.2364 4.28594 20.0604 4.35854 19.9303 4.48788L18.2567 6.15455C18.1916 6.21911 18.1399 6.29591 18.1047 6.38054C18.0694 6.46516 18.0513 6.55593 18.0513 6.64761C18.0513 6.73928 18.0694 6.83005 18.1047 6.91467C18.1399 6.9993 18.1916 7.0761 18.2567 7.14066C18.3216 7.20502 18.3985 7.25594 18.4831 7.2905C18.5677 7.32506 18.6583 7.34258 18.7497 7.34205ZM8.65744 6.92097C9.82611 6.15895 11.195 5.76164 12.59 5.77955C14.4429 5.79423 16.2144 6.54297 17.5161 7.86165C18.8179 9.18032 19.5437 10.9613 19.5345 12.8143C19.5343 14.2094 19.1194 15.573 18.3423 16.7318C17.5653 17.8905 16.4612 18.792 15.1705 19.3217C13.8798 19.8514 12.4608 19.9853 11.0938 19.7065C9.72677 19.4277 8.47355 18.7486 7.49341 17.7558C6.51328 16.7629 5.85051 15.501 5.58935 14.1305C5.3282 12.76 5.48045 11.3428 6.02676 10.0591C6.57308 8.77531 7.48877 7.68299 8.65744 6.92097ZM9.42841 17.5454C10.3688 18.1551 11.4694 18.4711 12.59 18.4532C14.0733 18.4385 15.4905 17.837 16.5316 16.7803C17.5727 15.7236 18.153 14.2977 18.1456 12.8143C18.1468 11.6935 17.8144 10.5978 17.1908 9.66653C16.5672 8.73531 15.6805 8.01076 14.6438 7.58515C13.607 7.15954 12.467 7.05214 11.3689 7.27662C10.2709 7.5011 9.26449 8.0473 8.47792 8.84567C7.69135 9.64403 7.16019 10.6584 6.95209 11.7597C6.74398 12.861 6.86834 13.9992 7.30934 15.0296C7.75033 16.0599 8.488 16.9357 9.42841 17.5454Z" fill="black"/>
</svg>
